<?xml version="1.0" encoding="utf-8"?>
<svg width="16" height="16" fill="currentColor" class="bi bi-plus-circle" viewBox="0 0 16 16" xmlns="http://www.w3.org/2000/svg">
  <path d="M 7.896 14.457 C 2.907 14.457 -0.212 9.076 2.283 4.772 C 3.442 2.774 5.581 1.543 7.896 1.543 C 12.887 1.543 16.007 6.924 13.511 11.229 C 12.353 13.225 10.213 14.457 7.896 14.457 Z M 7.896 15.38 C 13.6 15.38 17.165 9.23 14.314 4.31 C 12.99 2.026 10.545 0.621 7.896 0.621 C 2.194 0.621 -1.371 6.77 1.481 11.69 C 2.804 13.973 5.25 15.38 7.896 15.38 Z" style="stroke: rgb(255, 255, 255);"/>
  <path d="M8 4a.5.5 0 0 1 .5.5v3h3a.5.5 0 0 1 0 1h-3v3a.5.5 0 0 1-1 0v-3h-3a.5.5 0 0 1 0-1h3v-3A.5.5 0 0 1 8 4z" style="stroke: rgb(255, 255, 255);"/>
</svg>